<svg width="172" height="35" viewBox="0 0 172 35" fill="none" xmlns="http://www.w3.org/2000/svg">
<path d="M3.35663 18.28L5.29263 12.952H5.32463L7.22863 18.28H3.35663ZM4.49263 11.576L0.044625 23H1.59663L2.87663 19.56H7.70863L8.95662 23H10.6366L6.17263 11.576H4.49263ZM13.6196 11.576V23H14.9796V11.576H13.6196ZM19.1665 11.576V23H20.5265V11.576H19.1665ZM31.3105 11.576V23H32.8305V18.12H36.5425C36.9158 18.12 37.2145 18.1787 37.4385 18.296C37.6625 18.4027 37.8438 18.552 37.9825 18.744C38.1212 18.9253 38.2225 19.144 38.2865 19.4C38.3505 19.6453 38.4038 19.9067 38.4465 20.184C38.4998 20.4613 38.5318 20.744 38.5425 21.032C38.5532 21.32 38.5638 21.592 38.5745 21.848C38.5852 22.0933 38.6065 22.3173 38.6385 22.52C38.6812 22.7227 38.7558 22.8827 38.8625 23H40.5585C40.3985 22.808 40.2758 22.5893 40.1905 22.344C40.1158 22.088 40.0572 21.8213 40.0145 21.544C39.9718 21.2667 39.9452 20.984 39.9345 20.696C39.9238 20.408 39.9078 20.1253 39.8865 19.848C39.8545 19.5707 39.8065 19.304 39.7425 19.048C39.6892 18.792 39.5985 18.5627 39.4705 18.36C39.3532 18.1467 39.1878 17.9653 38.9745 17.816C38.7718 17.6667 38.5052 17.56 38.1745 17.496V17.464C38.8678 17.272 39.3692 16.9147 39.6785 16.392C39.9985 15.8693 40.1585 15.2613 40.1585 14.568C40.1585 13.64 39.8492 12.9093 39.2305 12.376C38.6225 11.8427 37.7745 11.576 36.6865 11.576H31.3105ZM35.9985 16.84H32.8305V12.856H36.6065C37.3212 12.856 37.8385 13.0373 38.1585 13.4C38.4785 13.7627 38.6385 14.232 38.6385 14.808C38.6385 15.224 38.5638 15.5653 38.4145 15.832C38.2758 16.088 38.0838 16.296 37.8385 16.456C37.6038 16.6053 37.3265 16.7067 37.0065 16.76C36.6865 16.8133 36.3505 16.84 35.9985 16.84ZM49.7836 18.072H45.0316C45.053 17.752 45.1223 17.4533 45.2396 17.176C45.357 16.888 45.517 16.6373 45.7196 16.424C45.9223 16.2107 46.1623 16.0453 46.4396 15.928C46.7276 15.8 47.0476 15.736 47.3996 15.736C47.741 15.736 48.0503 15.8 48.3276 15.928C48.6156 16.0453 48.861 16.2107 49.0636 16.424C49.277 16.6267 49.4423 16.872 49.5596 17.16C49.6876 17.448 49.7623 17.752 49.7836 18.072ZM51.0956 20.376H49.7516C49.6343 20.92 49.389 21.3253 49.0156 21.592C48.653 21.8587 48.1836 21.992 47.6076 21.992C47.1596 21.992 46.7703 21.9173 46.4396 21.768C46.109 21.6187 45.837 21.4213 45.6236 21.176C45.4103 20.92 45.2556 20.632 45.1596 20.312C45.0636 19.9813 45.021 19.6347 45.0316 19.272H51.2236C51.245 18.7707 51.197 18.2427 51.0796 17.688C50.973 17.1333 50.7703 16.6213 50.4716 16.152C50.1836 15.6827 49.7943 15.2987 49.3036 15C48.8236 14.6907 48.2156 14.536 47.4796 14.536C46.9143 14.536 46.3916 14.6427 45.9116 14.856C45.4423 15.0693 45.0316 15.368 44.6796 15.752C44.3383 16.136 44.0716 16.5893 43.8796 17.112C43.6876 17.6347 43.5916 18.2107 43.5916 18.84C43.613 19.4693 43.7036 20.0507 43.8636 20.584C44.0343 21.1173 44.285 21.576 44.6156 21.96C44.9463 22.344 45.3516 22.6427 45.8316 22.856C46.3223 23.0693 46.8983 23.176 47.5596 23.176C48.4983 23.176 49.277 22.9413 49.8956 22.472C50.5143 22.0027 50.9143 21.304 51.0956 20.376ZM55.4654 20.392H54.1054C54.1267 20.904 54.2334 21.3413 54.4254 21.704C54.6174 22.056 54.8734 22.344 55.1934 22.568C55.5134 22.7813 55.8814 22.936 56.2974 23.032C56.7134 23.128 57.1507 23.176 57.6094 23.176C58.0254 23.176 58.4414 23.1333 58.8574 23.048C59.284 22.9733 59.6627 22.8347 59.9934 22.632C60.3347 22.4293 60.6067 22.1627 60.8094 21.832C61.0227 21.5013 61.1294 21.0853 61.1294 20.584C61.1294 20.1893 61.0494 19.8587 60.8894 19.592C60.74 19.3253 60.5374 19.1067 60.2814 18.936C60.036 18.7547 59.748 18.6107 59.4174 18.504C59.0974 18.3973 58.7667 18.3067 58.4254 18.232C58.1054 18.1573 57.7854 18.088 57.4654 18.024C57.1454 17.9493 56.8574 17.864 56.6014 17.768C56.3454 17.6613 56.132 17.5333 55.9614 17.384C55.8014 17.224 55.7214 17.0267 55.7214 16.792C55.7214 16.5787 55.7747 16.408 55.8814 16.28C55.988 16.1413 56.1267 16.0347 56.2974 15.96C56.468 15.8747 56.6547 15.816 56.8574 15.784C57.0707 15.752 57.2787 15.736 57.4814 15.736C57.7054 15.736 57.924 15.7627 58.1374 15.816C58.3614 15.8587 58.564 15.9333 58.7454 16.04C58.9267 16.1467 59.076 16.2907 59.1934 16.472C59.3107 16.6427 59.38 16.8613 59.4014 17.128H60.7614C60.7294 16.6267 60.6227 16.2107 60.4414 15.88C60.26 15.5387 60.0147 15.272 59.7054 15.08C59.4067 14.8773 59.06 14.7387 58.6654 14.664C58.2707 14.5787 57.8387 14.536 57.3694 14.536C57.0067 14.536 56.6387 14.584 56.2654 14.68C55.9027 14.7653 55.572 14.904 55.2734 15.096C54.9854 15.2773 54.7454 15.5173 54.5534 15.816C54.372 16.1147 54.2814 16.472 54.2814 16.888C54.2814 17.4213 54.4147 17.8373 54.6814 18.136C54.948 18.4347 55.2787 18.6693 55.6734 18.84C56.0787 19 56.516 19.128 56.9854 19.224C57.4547 19.3093 57.8867 19.4107 58.2814 19.528C58.6867 19.6347 59.0227 19.7787 59.2894 19.96C59.556 20.1413 59.6894 20.408 59.6894 20.76C59.6894 21.016 59.6254 21.2293 59.4974 21.4C59.3694 21.56 59.204 21.6827 59.0014 21.768C58.8094 21.8533 58.596 21.912 58.3614 21.944C58.1267 21.976 57.9027 21.992 57.6894 21.992C57.412 21.992 57.14 21.9653 56.8734 21.912C56.6174 21.8587 56.3827 21.7733 56.1694 21.656C55.9667 21.528 55.8014 21.3627 55.6734 21.16C55.5454 20.9467 55.476 20.6907 55.4654 20.392ZM66.5214 14.728V12.248H65.1614V14.728H63.7534V15.928H65.1614V21.192C65.1614 21.576 65.1987 21.8853 65.2734 22.12C65.348 22.3547 65.46 22.536 65.6094 22.664C65.7694 22.792 65.972 22.8827 66.2174 22.936C66.4734 22.9787 66.7774 23 67.1294 23H68.1694V21.8H67.5454C67.332 21.8 67.156 21.7947 67.0174 21.784C66.8894 21.7627 66.788 21.7253 66.7134 21.672C66.6387 21.6187 66.5854 21.544 66.5534 21.448C66.532 21.352 66.5214 21.224 66.5214 21.064V15.928H68.1694V14.728H66.5214ZM79.0083 22.968C78.7736 23.1067 78.4483 23.176 78.0323 23.176C77.6803 23.176 77.3976 23.08 77.1843 22.888C76.9816 22.6853 76.8803 22.36 76.8803 21.912C76.5069 22.36 76.0696 22.6853 75.5683 22.888C75.0776 23.08 74.5443 23.176 73.9683 23.176C73.5949 23.176 73.2376 23.1333 72.8963 23.048C72.5656 22.9627 72.2776 22.8293 72.0323 22.648C71.7869 22.4667 71.5896 22.232 71.4403 21.944C71.3016 21.6453 71.2323 21.288 71.2323 20.872C71.2323 20.4027 71.3123 20.0187 71.4723 19.72C71.6323 19.4213 71.8403 19.1813 72.0963 19C72.3629 18.808 72.6616 18.664 72.9923 18.568C73.3336 18.472 73.6803 18.392 74.0323 18.328C74.4056 18.2533 74.7576 18.2 75.0883 18.168C75.4296 18.1253 75.7283 18.072 75.9843 18.008C76.2403 17.9333 76.4429 17.832 76.5923 17.704C76.7416 17.5653 76.8163 17.368 76.8163 17.112C76.8163 16.8133 76.7576 16.5733 76.6403 16.392C76.5336 16.2107 76.3896 16.072 76.2083 15.976C76.0376 15.88 75.8403 15.816 75.6163 15.784C75.4029 15.752 75.1896 15.736 74.9763 15.736C74.4003 15.736 73.9203 15.848 73.5363 16.072C73.1523 16.2853 72.9443 16.696 72.9123 17.304H71.5523C71.5736 16.792 71.6803 16.36 71.8723 16.008C72.0643 15.656 72.3203 15.3733 72.6403 15.16C72.9603 14.936 73.3229 14.776 73.7283 14.68C74.1443 14.584 74.5869 14.536 75.0563 14.536C75.4296 14.536 75.7976 14.5627 76.1603 14.616C76.5336 14.6693 76.8696 14.7813 77.1683 14.952C77.4669 15.112 77.7069 15.3413 77.8883 15.64C78.0696 15.9387 78.1603 16.328 78.1603 16.808V21.064C78.1603 21.384 78.1763 21.6187 78.2083 21.768C78.2509 21.9173 78.3789 21.992 78.5923 21.992C78.7096 21.992 78.8483 21.9653 79.0083 21.912V22.968ZM76.8003 18.728C76.6296 18.856 76.4056 18.952 76.1283 19.016C75.8509 19.0693 75.5576 19.1173 75.2483 19.16C74.9496 19.192 74.6456 19.2347 74.3363 19.288C74.0269 19.3307 73.7496 19.4053 73.5043 19.512C73.2589 19.6187 73.0563 19.7733 72.8963 19.976C72.7469 20.168 72.6723 20.4347 72.6723 20.776C72.6723 21 72.7149 21.192 72.8003 21.352C72.8963 21.5013 73.0136 21.624 73.1523 21.72C73.3016 21.816 73.4723 21.8853 73.6643 21.928C73.8563 21.9707 74.0589 21.992 74.2723 21.992C74.7203 21.992 75.1043 21.9333 75.4243 21.816C75.7443 21.688 76.0056 21.5333 76.2083 21.352C76.4109 21.16 76.5603 20.9573 76.6563 20.744C76.7523 20.52 76.8003 20.312 76.8003 20.12V18.728ZM89.122 23V14.728H87.762V19.4C87.762 19.7733 87.7087 20.12 87.602 20.44C87.506 20.7493 87.3567 21.0213 87.154 21.256C86.9513 21.4907 86.6953 21.672 86.386 21.8C86.0873 21.928 85.73 21.992 85.314 21.992C84.7913 21.992 84.3807 21.8427 84.082 21.544C83.7833 21.2453 83.634 20.84 83.634 20.328V14.728H82.274V20.168C82.274 20.616 82.3167 21.0267 82.402 21.4C82.498 21.7627 82.658 22.0773 82.882 22.344C83.106 22.6107 83.3993 22.8187 83.762 22.968C84.1247 23.1067 84.578 23.176 85.122 23.176C85.73 23.176 86.258 23.0587 86.706 22.824C87.154 22.5787 87.522 22.2 87.81 21.688H87.842V23H89.122ZM93.1166 14.728V23H94.4766V19.32C94.4766 18.7867 94.53 18.3173 94.6366 17.912C94.7433 17.496 94.914 17.144 95.1486 16.856C95.3833 16.568 95.6926 16.3493 96.0766 16.2C96.4606 16.0507 96.9246 15.976 97.4686 15.976V14.536C96.7326 14.5147 96.1246 14.664 95.6446 14.984C95.1646 15.304 94.7593 15.8 94.4286 16.472H94.3966V14.728H93.1166ZM107.821 22.968C107.586 23.1067 107.261 23.176 106.845 23.176C106.493 23.176 106.21 23.08 105.997 22.888C105.794 22.6853 105.693 22.36 105.693 21.912C105.319 22.36 104.882 22.6853 104.381 22.888C103.89 23.08 103.357 23.176 102.781 23.176C102.407 23.176 102.05 23.1333 101.709 23.048C101.378 22.9627 101.09 22.8293 100.845 22.648C100.599 22.4667 100.402 22.232 100.253 21.944C100.114 21.6453 100.045 21.288 100.045 20.872C100.045 20.4027 100.125 20.0187 100.285 19.72C100.445 19.4213 100.653 19.1813 100.909 19C101.175 18.808 101.474 18.664 101.805 18.568C102.146 18.472 102.493 18.392 102.845 18.328C103.218 18.2533 103.57 18.2 103.901 18.168C104.242 18.1253 104.541 18.072 104.797 18.008C105.053 17.9333 105.255 17.832 105.405 17.704C105.554 17.5653 105.629 17.368 105.629 17.112C105.629 16.8133 105.57 16.5733 105.453 16.392C105.346 16.2107 105.202 16.072 105.021 15.976C104.85 15.88 104.653 15.816 104.429 15.784C104.215 15.752 104.002 15.736 103.789 15.736C103.213 15.736 102.733 15.848 102.349 16.072C101.965 16.2853 101.757 16.696 101.725 17.304H100.365C100.386 16.792 100.493 16.36 100.685 16.008C100.877 15.656 101.133 15.3733 101.453 15.16C101.773 14.936 102.135 14.776 102.541 14.68C102.957 14.584 103.399 14.536 103.869 14.536C104.242 14.536 104.61 14.5627 104.973 14.616C105.346 14.6693 105.682 14.7813 105.981 14.952C106.279 15.112 106.519 15.3413 106.701 15.64C106.882 15.9387 106.973 16.328 106.973 16.808V21.064C106.973 21.384 106.989 21.6187 107.021 21.768C107.063 21.9173 107.191 21.992 107.405 21.992C107.522 21.992 107.661 21.9653 107.821 21.912V22.968ZM105.613 18.728C105.442 18.856 105.218 18.952 104.941 19.016C104.663 19.0693 104.37 19.1173 104.061 19.16C103.762 19.192 103.458 19.2347 103.149 19.288C102.839 19.3307 102.562 19.4053 102.317 19.512C102.071 19.6187 101.869 19.7733 101.709 19.976C101.559 20.168 101.485 20.4347 101.485 20.776C101.485 21 101.527 21.192 101.613 21.352C101.709 21.5013 101.826 21.624 101.965 21.72C102.114 21.816 102.285 21.8853 102.477 21.928C102.669 21.9707 102.871 21.992 103.085 21.992C103.533 21.992 103.917 21.9333 104.237 21.816C104.557 21.688 104.818 21.5333 105.021 21.352C105.223 21.16 105.373 20.9573 105.469 20.744C105.565 20.52 105.613 20.312 105.613 20.12V18.728ZM111.087 14.728V23H112.447V18.328C112.447 17.9547 112.495 17.6133 112.591 17.304C112.697 16.984 112.852 16.7067 113.055 16.472C113.257 16.2373 113.508 16.056 113.807 15.928C114.116 15.8 114.479 15.736 114.895 15.736C115.417 15.736 115.828 15.8853 116.127 16.184C116.425 16.4827 116.575 16.888 116.575 17.4V23H117.935V17.56C117.935 17.112 117.887 16.7067 117.791 16.344C117.705 15.9707 117.551 15.6507 117.327 15.384C117.103 15.1173 116.809 14.9093 116.447 14.76C116.084 14.6107 115.631 14.536 115.087 14.536C113.86 14.536 112.964 15.0373 112.399 16.04H112.367V14.728H111.087ZM123.865 14.728V12.248H122.505V14.728H121.097V15.928H122.505V21.192C122.505 21.576 122.542 21.8853 122.617 22.12C122.692 22.3547 122.804 22.536 122.953 22.664C123.113 22.792 123.316 22.8827 123.561 22.936C123.817 22.9787 124.121 23 124.473 23H125.513V21.8H124.889C124.676 21.8 124.5 21.7947 124.361 21.784C124.233 21.7627 124.132 21.7253 124.057 21.672C123.982 21.6187 123.929 21.544 123.897 21.448C123.876 21.352 123.865 21.224 123.865 21.064V15.928H125.513V14.728H123.865ZM129.856 20.392H128.496C128.517 20.904 128.624 21.3413 128.816 21.704C129.008 22.056 129.264 22.344 129.584 22.568C129.904 22.7813 130.272 22.936 130.688 23.032C131.104 23.128 131.541 23.176 132 23.176C132.416 23.176 132.832 23.1333 133.248 23.048C133.675 22.9733 134.053 22.8347 134.384 22.632C134.725 22.4293 134.997 22.1627 135.2 21.832C135.413 21.5013 135.52 21.0853 135.52 20.584C135.52 20.1893 135.44 19.8587 135.28 19.592C135.131 19.3253 134.928 19.1067 134.672 18.936C134.427 18.7547 134.139 18.6107 133.808 18.504C133.488 18.3973 133.157 18.3067 132.816 18.232C132.496 18.1573 132.176 18.088 131.856 18.024C131.536 17.9493 131.248 17.864 130.992 17.768C130.736 17.6613 130.523 17.5333 130.352 17.384C130.192 17.224 130.112 17.0267 130.112 16.792C130.112 16.5787 130.165 16.408 130.272 16.28C130.379 16.1413 130.517 16.0347 130.688 15.96C130.859 15.8747 131.045 15.816 131.248 15.784C131.461 15.752 131.669 15.736 131.872 15.736C132.096 15.736 132.315 15.7627 132.528 15.816C132.752 15.8587 132.955 15.9333 133.136 16.04C133.317 16.1467 133.467 16.2907 133.584 16.472C133.701 16.6427 133.771 16.8613 133.792 17.128H135.152C135.12 16.6267 135.013 16.2107 134.832 15.88C134.651 15.5387 134.405 15.272 134.096 15.08C133.797 14.8773 133.451 14.7387 133.056 14.664C132.661 14.5787 132.229 14.536 131.76 14.536C131.397 14.536 131.029 14.584 130.656 14.68C130.293 14.7653 129.963 14.904 129.664 15.096C129.376 15.2773 129.136 15.5173 128.944 15.816C128.763 16.1147 128.672 16.472 128.672 16.888C128.672 17.4213 128.805 17.8373 129.072 18.136C129.339 18.4347 129.669 18.6693 130.064 18.84C130.469 19 130.907 19.128 131.376 19.224C131.845 19.3093 132.277 19.4107 132.672 19.528C133.077 19.6347 133.413 19.7787 133.68 19.96C133.947 20.1413 134.08 20.408 134.08 20.76C134.08 21.016 134.016 21.2293 133.888 21.4C133.76 21.56 133.595 21.6827 133.392 21.768C133.2 21.8533 132.987 21.912 132.752 21.944C132.517 21.976 132.293 21.992 132.08 21.992C131.803 21.992 131.531 21.9653 131.264 21.912C131.008 21.8587 130.773 21.7733 130.56 21.656C130.357 21.528 130.192 21.3627 130.064 21.16C129.936 20.9467 129.867 20.6907 129.856 20.392Z" fill="black"/>
<g clip-path="url(#clip0_126_5487)">
<path fill-rule="evenodd" clip-rule="evenodd" d="M148.157 8.67147C148.268 8.56161 148.418 8.5 148.574 8.5C148.731 8.5 148.881 8.56161 148.992 8.67147L157.821 17.0995C157.877 17.1498 157.922 17.2114 157.953 17.2803C157.984 17.3493 158 17.4239 158 17.4995C158 17.575 157.984 17.6497 157.953 17.7186C157.922 17.7876 157.877 17.8492 157.821 17.8995L149.021 26.3275C148.91 26.4367 148.76 26.4984 148.604 26.4995C148.448 26.4988 148.298 26.437 148.187 26.3275C148.131 26.2772 148.085 26.2156 148.055 26.1466C148.024 26.0777 148.008 26.003 148.008 25.9275C148.008 25.8519 148.024 25.7773 148.055 25.7083C148.085 25.6394 148.131 25.5778 148.187 25.5275L156.538 17.4985L148.155 9.46947C148.055 9.36031 148 9.21758 148 9.06958C148 8.92158 148.056 8.77913 148.157 8.67047V8.67147ZM162.157 8.67147C162.268 8.56161 162.418 8.5 162.574 8.5C162.731 8.5 162.881 8.56161 162.992 8.67147L171.821 17.0995C171.877 17.1498 171.922 17.2114 171.953 17.2803C171.984 17.3493 172 17.4239 172 17.4995C172 17.575 171.984 17.6497 171.953 17.7186C171.922 17.7876 171.877 17.8492 171.821 17.8995L163.021 26.3275C162.91 26.4367 162.76 26.4984 162.604 26.4995C162.448 26.4988 162.298 26.437 162.187 26.3275C162.131 26.2772 162.085 26.2156 162.055 26.1466C162.024 26.0777 162.008 26.003 162.008 25.9275C162.008 25.8519 162.024 25.7773 162.055 25.7083C162.085 25.6394 162.131 25.5778 162.187 25.5275L170.538 17.4985L162.155 9.46947C162.055 9.36031 162 9.21758 162 9.06958C162 8.92158 162.056 8.77913 162.157 8.67047V8.67147Z" fill="black"/>
</g>
<defs>
<clipPath id="clip0_126_5487">
<rect width="24" height="24" fill="white" transform="translate(148 5.5)"/>
</clipPath>
</defs>
</svg>
